<svg xmlns="http://www.w3.org/2000/svg" viewBox="6.4 6.4 51.2 51.2" role="img" aria-label="CodeForge anvil and hammer">
  <path fill="#f2f2f2" d="M31.5 36.5h17.7c2.1 0 3.8-1.7 3.8-3.8v-2.2h-8.7c-1.2 0-2.4-.5-3.2-1.4l-2-2.1H14.5c-1.9 0-3.5 1.6-3.5 3.5v2.3c0 2 1.7 3.7 3.7 3.7h5.8c1.4 0 2.6.8 3.3 2l2.6 4.8h13.4l-2.4-4.8c-.6-1.2-1.8-2-3.2-2h-2.7Z"/>
  <path fill="#f2f2f2" d="M22 46h23v5H19.5c-1.4 0-2.5-1.1-2.5-2.5S18.1 46 19.5 46H22Zm8-20h8l-2.5-7.5h-3L30 26Z"/>
  <path fill="#f2f2f2" d="M41.7 10.3 54 22.6l-3.9 3.9-3.1-3.1-19 19-4.6-4.6 19-19-4.6-4.6 3.9-3.9Z"/>
  <path fill="#f2f2f2" d="m36.2 13.6 4.2-4.2c1.4-1.4 3.7-1.4 5.1 0l9.1 9.1c1.4 1.4 1.4 3.7 0 5.1l-.8.8-17.6-17.6Z" opacity=".72"/>
</svg>
